<svg xmlns="http://www.w3.org/2000/svg" style="display: none;"><symbol id="close" viewBox="0 0 51.976 51.976"><title>close</title><path d="M44.373,7.603c-10.137-10.137-26.632-10.138-36.77,0c-10.138,10.138-10.137,26.632,0,36.77s26.632,10.138,36.77,0 C54.51,34.235,54.51,17.74,44.373,7.603z M36.241,36.241c-0.781,0.781-2.047,0.781-2.828,0l-7.425-7.425l-7.778,7.778 c-0.781,0.781-2.047,0.781-2.828,0c-0.781-0.781-0.781-2.047,0-2.828l7.778-7.778l-7.425-7.425c-0.781-0.781-0.781-2.048,0-2.828 c0.781-0.781,2.047-0.781,2.828,0l7.425,7.425l7.071-7.071c0.781-0.781,2.047-0.781,2.828,0c0.781,0.781,0.781,2.047,0,2.828 l-7.071,7.071l7.425,7.425C37.022,34.194,37.022,35.46,36.241,36.241z"/></symbol><symbol id="cogwheel" viewBox="0 0 54 54"><title>cogwheel</title><path d="M51.22,21h-5.052c-0.812,0-1.481-0.447-1.792-1.197s-0.153-1.54,0.42-2.114l3.572-3.571 c0.525-0.525,0.814-1.224,0.814-1.966c0-0.743-0.289-1.441-0.814-1.967l-4.553-4.553c-1.05-1.05-2.881-1.052-3.933,0l-3.571,3.571 c-0.475,0.475-0.997,0.574-1.352,0.574c-0.5,0-0.997-0.196-1.364-0.539C33.324,8.984,33,8.534,33,7.832V2.78 C33,1.247,31.753,0,30.22,0H23.78C22.247,0,21,1.247,21,2.78v5.052c0,1.218-0.997,1.945-1.961,1.945c-0.354,0-0.876-0.1-1.351-0.574 l-3.571-3.571c-1.052-1.052-2.883-1.05-3.933,0l-4.553,4.553c-0.525,0.525-0.814,1.224-0.814,1.967c0,0.742,0.289,1.44,0.814,1.966 l3.572,3.571c0.573,0.574,0.73,1.364,0.42,2.114S8.644,21,7.832,21H2.78C1.247,21,0,22.247,0,23.78v6.438C0,31.752,1.247,33,2.78,33 h5.052c0.812,0,1.481,0.447,1.792,1.197s0.153,1.54-0.42,2.114l-3.572,3.571c-0.525,0.525-0.814,1.224-0.814,1.966 c0,0.743,0.289,1.441,0.814,1.967l4.553,4.553c1.051,1.051,2.881,1.053,3.933,0l3.571-3.571c0.475-0.475,0.997-0.574,1.352-0.574 c0.963,0,1.96,0.728,1.96,1.945v5.051C21,52.752,22.247,54,23.78,54h6.439c1.533,0,2.78-1.248,2.78-2.781v-5.051 c0-1.218,0.997-1.945,1.96-1.945c0.354,0,0.877,0.1,1.352,0.574l3.571,3.571c1.052,1.052,2.883,1.05,3.933,0l4.553-4.553 c0.525-0.525,0.814-1.224,0.814-1.967c0-0.742-0.289-1.44-0.814-1.966l-3.572-3.571c-0.573-0.574-0.73-1.364-0.42-2.114 S45.356,33,46.168,33h5.052c1.533,0,2.78-1.248,2.78-2.781V23.78C54,22.247,52.753,21,51.22,21z M34,27c0,3.859-3.141,7-7,7 s-7-3.141-7-7s3.141-7,7-7S34,23.141,34,27z"/></symbol><symbol id="mark" viewBox="0 0 60 60"><title>mark</title><path d="M30,16c4.411,0,8-3.589,8-8s-3.589-8-8-8s-8,3.589-8,8S25.589,16,30,16z"/><path d="M30,44c-4.411,0-8,3.589-8,8s3.589,8,8,8s8-3.589,8-8S34.411,44,30,44z"/><path d="M30,22c-4.411,0-8,3.589-8,8s3.589,8,8,8s8-3.589,8-8S34.411,22,30,22z"/></symbol><symbol id="line" viewBox="0 0 42 42"><title>line</title><path d="M37.059,16H26H16H4.941C2.224,16,0,18.282,0,21s2.224,5,4.941,5H16h10h11.059C39.776,26,42,23.718,42,21 S39.776,16,37.059,16z"/></symbol><symbol id="push-pin" viewBox="0 0 53.011 53.011"><title>push-pin</title><path d="M52.963,21.297c-0.068-0.329-0.297-0.603-0.609-0.727c-2.752-1.097-5.67-1.653-8.673-1.653 c-4.681,0-8.293,1.338-9.688,1.942L19.114,8.2c0.52-4.568-1.944-7.692-2.054-7.828C16.881,0.151,16.618,0.016,16.335,0 c-0.282-0.006-0.561,0.091-0.761,0.292L0.32,15.546c-0.202,0.201-0.308,0.479-0.291,0.765c0.016,0.284,0.153,0.549,0.376,0.726 c2.181,1.73,4.843,2.094,6.691,2.094c0.412,0,0.764-0.019,1.033-0.04l12.722,14.954c-0.868,2.23-3.52,10.27-0.307,18.337 c0.124,0.313,0.397,0.541,0.727,0.609c0.067,0.014,0.135,0.021,0.202,0.021c0.263,0,0.518-0.104,0.707-0.293l14.57-14.57 l13.57,13.57c0.195,0.195,0.451,0.293,0.707,0.293s0.512-0.098,0.707-0.293c0.391-0.391,0.391-1.023,0-1.414l-13.57-13.57 l14.527-14.528C52.929,21.969,53.031,21.627,52.963,21.297z"/></symbol><symbol id="aspect" viewBox="0 -64 512 512"><title>aspect</title><path d="m454.398438 384h-394.664063c-34.132813 0-59.734375-25.601562-59.734375-57.601562v-266.664063c0-34.132813 25.601562-59.734375 59.734375-59.734375h394.664063c32 0 57.601562 25.601562 57.601562 59.734375v266.664063c0 32-25.601562 57.601562-57.601562 57.601562zm-394.664063-352c-14.933594 0-27.734375 12.800781-27.734375 27.734375v266.664063c0 14.933593 12.800781 27.734374 27.734375 27.734374h394.664063c14.933593 0 27.734374-12.800781 27.734374-27.734374v-266.664063c0-14.933594-12.800781-27.734375-27.734374-27.734375zm0 0"/><path d="m177.066406 256h-10.667968c-21.332032 0-38.398438-17.066406-38.398438-38.398438v-53.335937c0-19.199219 17.066406-36.265625 38.398438-36.265625h32c8.535156 0 14.933593 6.398438 14.933593 17.066406 0 10.667969-6.398437 17.066406-17.066406 17.066406h-29.867187c-2.132813 0-6.398438 2.132813-6.398438 6.402344v10.664063h17.066406c21.332032 0 38.398438 17.066406 38.398438 38.402343v6.398438c-2.132813 14.933594-19.199219 32-38.398438 32zm-17.066406-46.933594v10.667969c0 2.132813 2.132812 6.398437 6.398438 6.398437h10.667968c2.132813 0 6.398438-2.132812 6.398438-6.398437v-6.402344c0-2.132812-2.132813-6.398437-6.398438-6.398437h-17.066406zm0 0"/><path d="m390.398438 256h-32c-8.53125 0-17.066407-6.398438-17.066407-17.066406 0-10.667969 6.402344-17.066406 17.066407-17.066406h32c2.136718 0 6.402343-2.132813 6.402343-6.402344v-10.664063h-17.066406c-21.335937 0-38.402344-17.066406-38.402344-38.402343v-6.398438c0-21.332031 17.066407-38.398438 38.402344-38.398438h10.664063c21.335937 0 38.402343 17.066407 38.402343 38.398438v53.332031c-2.132812 25.601563-19.199219 42.667969-38.402343 42.667969zm-10.664063-96c-2.132813 0-6.402344 2.132812-6.402344 6.398438v4.269531c0 2.132812 2.132813 6.398437 6.402344 6.398437h17.066406v-10.667968c0-2.132813-2.132812-6.398438-6.402343-6.398438zm0 0"/><path d="m91.734375 256c-8.535156 0-17.066406-6.398438-17.066406-17.066406v-93.867188c0-10.667968 6.398437-17.066406 17.066406-17.066406 10.664063 0 14.933594 6.398438 14.933594 17.066406v96c0 8.535156-6.402344 14.933594-14.933594 14.933594zm0 0"/><path d="m298.667969 149.332031c0 11.785157-9.550781 21.335938-21.335938 21.335938-11.78125 0-21.332031-9.550781-21.332031-21.335938 0-11.78125 9.550781-21.332031 21.332031-21.332031 11.785157 0 21.335938 9.550781 21.335938 21.332031zm0 0"/><path d="m298.667969 234.667969c0 11.78125-9.550781 21.332031-21.335938 21.332031-11.78125 0-21.332031-9.550781-21.332031-21.332031 0-11.785157 9.550781-21.335938 21.332031-21.335938 11.785157 0 21.335938 9.550781 21.335938 21.335938zm0 0"/></symbol></svg>